<?xml version="1.0" standalone="no"?>
<!DOCTYPE svg PUBLIC "-//W3C//DTD SVG 20010904//EN"
 "http://www.w3.org/TR/2001/REC-SVG-20010904/DTD/svg10.dtd">
<svg version="1.0" xmlns="http://www.w3.org/2000/svg"
 width="583.000000pt" height="583.000000pt" viewBox="0 0 583.000000 583.000000"
 preserveAspectRatio="xMidYMid meet">
<metadata>
Created by potrace 1.11, written by Peter Selinger 2001-2013
</metadata>
<g transform="translate(0.000000,583.000000) scale(0.100000,-0.100000)"
fill="#000000" stroke="none">
<path d="M2755 5766 c-26 -30 -46 -57 -45 -61 1 -4 -2 -11 -7 -14 -29 -19
-203 -291 -188 -291 4 0 3 -6 -2 -12 -15 -20 -41 -96 -56 -163 -48 -216 50
-455 291 -704 23 -24 42 -48 42 -53 0 -5 6 -6 13 -2 6 4 9 4 5 -1 -4 -4 1 -20
12 -35 11 -15 24 -40 30 -56 16 -41 14 -135 -4 -177 -8 -21 -13 -37 -10 -37 2
0 -3 -11 -12 -25 -9 -14 -15 -28 -12 -30 7 -7 63 75 82 120 46 108 52 291 20
570 -9 76 -32 149 -85 271 -27 62 -49 117 -49 123 0 6 -5 11 -11 11 -5 0 -8 4
-5 8 3 5 -1 29 -9 54 -7 25 -16 62 -19 82 -3 19 -6 39 -7 43 -1 4 -1 18 0 31
1 19 3 21 15 10 8 -7 12 -16 10 -19 -2 -4 5 -33 17 -65 11 -33 21 -63 23 -69
4 -16 43 -98 117 -249 38 -77 69 -146 69 -153 0 -7 4 -13 8 -13 4 0 8 -8 8
-17 1 -10 5 -34 9 -53 15 -65 7 -363 -10 -391 -18 -29 22 6 63 56 18 21 79
154 86 186 20 89 24 124 24 200 0 47 -7 115 -15 150 -8 35 -16 71 -18 79 -2 8
-4 16 -5 18 -2 1 -3 5 -4 10 -4 23 -39 102 -45 102 -4 0 -8 6 -8 13 0 6 -19
42 -41 80 -23 37 -42 72 -42 77 0 6 -5 10 -11 10 -5 0 -8 4 -4 9 3 5 1 13 -5
16 -32 20 -150 324 -150 386 0 36 -19 28 -65 -25z"/>
<path d="M1679 5389 c-6 -3 -2 -12 7 -20 16 -12 17 -12 10 1 -4 8 0 6 8 -4 9
-11 16 -16 16 -11 0 5 14 -4 30 -20 17 -16 30 -35 30 -42 0 -7 4 -13 9 -13 7
0 11 -9 22 -50 0 -3 5 -13 10 -22 5 -9 12 -68 14 -130 5 -108 10 -170 15 -175
1 -2 4 -7 5 -13 1 -5 4 -13 5 -17 1 -5 2 -12 1 -16 -1 -4 6 -15 14 -23 8 -9
13 -20 10 -25 -4 -5 -1 -9 4 -9 6 0 11 -9 11 -19 0 -10 7 -21 15 -25 8 -3 15
-10 15 -17 0 -6 15 -24 33 -40 17 -16 41 -37 51 -46 11 -10 16 -13 13 -7 -4 6
11 2 33 -8 40 -20 145 -31 207 -21 27 4 31 8 24 22 -5 9 -21 23 -35 31 -14 7
-26 20 -26 28 0 9 -3 13 -6 10 -8 -9 -84 64 -78 74 3 4 -2 8 -11 8 -9 0 -13 5
-10 10 3 6 1 10 -4 10 -6 0 -11 7 -11 15 0 8 -5 15 -11 15 -5 0 -8 4 -5 9 3 5
-1 12 -9 15 -8 3 -14 9 -13 13 1 4 -9 28 -22 53 -13 25 -23 48 -22 53 1 4 -2
7 -8 7 -5 0 -7 7 -4 15 4 8 2 15 -3 15 -5 0 -9 9 -10 21 -2 27 29 21 42 -9 5
-12 13 -22 17 -22 5 0 8 -7 8 -15 0 -8 5 -15 10 -15 6 0 10 -6 10 -13 0 -7 10
-23 23 -35 47 -44 76 -80 70 -86 -4 -3 1 -6 11 -6 9 0 14 -4 11 -10 -3 -5 -1
-10 6 -10 6 0 18 -8 26 -17 10 -12 12 -13 8 -3 -4 10 -2 9 8 -2 8 -10 18 -18
22 -18 5 0 20 -10 33 -22 14 -13 22 -16 17 -8 -5 8 4 4 18 -9 15 -14 27 -21
27 -17 0 5 11 1 25 -8 13 -9 26 -16 29 -16 5 0 1 39 -9 78 -3 12 -7 32 -11 45
-3 12 -7 33 -10 46 -3 14 -7 28 -9 31 -2 4 -7 22 -10 40 -3 18 -9 38 -13 44
-4 6 -7 13 -8 16 0 3 -5 16 -11 30 -6 14 -10 28 -9 31 0 4 -8 17 -19 30 -13
14 -14 20 -5 15 9 -4 8 -2 -2 7 -10 8 -18 19 -18 24 0 6 -7 16 -15 23 -9 7
-13 15 -11 17 3 3 -6 16 -20 30 -13 13 -24 28 -24 34 0 6 -4 7 -10 4 -5 -3
-15 3 -22 15 -7 11 -16 20 -20 20 -5 0 -17 9 -28 20 -11 11 -27 20 -35 20 -8
0 -15 5 -15 11 0 5 -4 7 -10 4 -5 -3 -10 -1 -10 4 0 6 -3 10 -7 10 -5 -1 -11
0 -15 1 -5 1 -12 4 -18 5 -5 1 -11 3 -12 5 -4 2 -36 10 -68 16 -75 14 -256 23
-271 13z"/>
<path d="M4485 5376 c-98 -66 -199 -101 -269 -91 -114 16 -249 15 -303 -4
-140 -48 -222 -159 -238 -323 -4 -35 -8 -73 -10 -85 -2 -13 0 -23 4 -23 4 0
48 32 97 71 49 38 116 86 150 105 64 36 174 78 182 69 7 -6 11 -4 -85 -60 -51
-30 -112 -78 -160 -126 -85 -86 -160 -189 -144 -199 13 -8 123 -3 231 10 127
16 149 20 204 42 108 42 181 98 240 187 56 83 148 396 126 430 -4 7 -13 6 -25
-3z"/>
<path d="M1745 5320 c10 -11 20 -20 23 -20 3 0 -3 9 -13 20 -10 11 -20 20 -23
20 -3 0 3 -9 13 -20z"/>
<path d="M930 5211 c0 -26 42 -215 59 -262 65 -190 163 -298 323 -357 75 -28
156 -41 307 -48 l123 -6 -7 23 c-16 49 -70 133 -114 176 -51 50 -163 128 -228
158 -51 24 -68 51 -26 41 57 -14 201 -91 307 -164 l108 -74 -6 86 c-7 94 -14
115 -63 192 -36 57 -76 94 -137 127 -37 20 -55 22 -171 21 -71 0 -162 -4 -202
-9 -67 -7 -76 -6 -130 20 -32 16 -74 41 -93 57 -36 29 -50 34 -50 19z"/>
<path d="M4805 4858 c-22 -11 -42 -23 -45 -27 -3 -3 -14 -8 -25 -9 -11 -2 -24
-7 -30 -12 -13 -9 -130 -48 -170 -55 -16 -3 -73 -14 -125 -25 -52 -11 -108
-22 -125 -24 -78 -9 -245 -75 -245 -97 0 -6 -4 -8 -8 -5 -5 3 -25 -10 -45 -28
-21 -19 -37 -32 -37 -31 0 10 -70 -68 -107 -119 -69 -93 -104 -181 -118 -296
l-5 -42 70 82 c86 100 152 163 197 187 18 10 33 21 33 25 0 4 7 4 17 1 9 -4
14 -2 10 3 -3 5 2 10 11 11 9 0 85 20 167 43 83 23 160 44 173 47 12 3 22 9
22 13 0 4 6 7 13 7 22 -2 107 27 107 36 0 4 5 5 10 2 6 -3 10 -2 10 2 0 5 8 9
18 9 9 1 25 4 35 9 9 4 17 3 17 -3 0 -11 -74 -62 -90 -62 -6 0 -9 -4 -6 -8 3
-5 0 -9 -7 -9 -10 0 -91 -30 -172 -63 -23 -9 -47 -17 -58 -19 -4 0 -21 -8 -37
-16 -16 -8 -32 -15 -35 -14 -12 2 -115 -44 -115 -51 0 -5 -7 -10 -15 -12 -19
-4 -120 -75 -158 -110 -16 -16 -32 -28 -36 -28 -4 0 -45 -40 -93 -89 -85 -88
-158 -206 -143 -230 3 -6 2 -11 -3 -11 -6 0 -12 -18 -14 -40 -2 -22 -2 -40 -1
-40 7 0 31 58 26 64 -4 3 -1 6 5 6 7 0 12 6 12 14 0 7 7 19 15 26 9 7 13 15
11 17 -11 11 76 76 119 88 17 5 120 9 230 10 195 2 286 8 309 22 6 4 16 8 22
9 6 1 33 12 60 25 27 12 51 23 54 23 12 2 107 77 131 103 57 63 127 187 132
236 1 12 5 24 8 27 7 6 56 182 64 230 4 19 8 55 10 80 2 25 6 66 9 93 6 54 2
55 -59 25z"/>
<path d="M3430 4810 c-2 -121 -32 -212 -90 -270 -51 -51 -110 -101 -110 -93 0
8 -90 -66 -124 -102 -53 -56 -112 -145 -122 -185 -2 -8 -8 -32 -13 -53 -12
-51 -5 -163 14 -217 20 -56 76 -156 110 -195 15 -16 24 -24 20 -17 -3 6 -2 12
4 12 5 0 8 8 7 17 -2 10 1 33 5 53 4 19 10 58 14 85 3 28 7 57 10 65 4 14 15
67 20 100 1 8 6 24 10 35 44 112 57 139 83 177 33 48 69 84 77 76 3 -2 -7 -38
-21 -79 -14 -41 -27 -81 -29 -89 -2 -8 -13 -44 -24 -80 -11 -36 -22 -78 -25
-95 -3 -16 -10 -52 -15 -80 -13 -67 -8 -212 9 -257 l14 -37 90 96 c50 53 90
100 89 104 -2 5 2 9 7 9 16 0 99 118 135 195 79 162 90 333 34 500 -20 59
-116 257 -158 325 l-21 35 0 -35z"/>
<path d="M965 4568 c2 -18 7 -55 9 -83 9 -87 17 -139 28 -180 5 -22 11 -47 13
-55 6 -29 48 -145 63 -175 9 -16 17 -35 18 -41 3 -21 70 -118 105 -155 87 -91
197 -146 329 -165 48 -7 260 -9 390 -3 81 3 137 -21 208 -88 7 -7 10 -13 5
-13 -4 0 -3 -4 3 -8 5 -4 20 -28 32 -54 12 -27 24 -48 26 -48 2 0 0 17 -5 38
-5 20 -12 46 -14 56 -15 63 -67 138 -163 234 -57 57 -106 101 -109 98 -3 -3
-13 3 -22 14 -27 32 -188 127 -259 153 -87 31 -245 80 -255 78 -4 -1 -15 5
-23 14 -9 8 -21 15 -28 15 -7 0 -33 13 -58 29 -25 16 -50 26 -54 23 -4 -4 -4
-2 -1 5 4 6 1 13 -5 16 -7 2 -10 7 -6 11 3 4 31 -4 62 -18 67 -31 175 -65 238
-76 4 -1 31 -8 59 -15 29 -8 56 -12 61 -9 4 3 8 1 8 -4 0 -5 6 -9 13 -9 29 -1
146 -37 194 -59 28 -14 76 -49 107 -78 30 -30 57 -52 60 -50 4 2 4 1 1 -3 -3
-4 5 -19 19 -33 14 -14 41 -42 61 -64 20 -21 38 -37 40 -34 4 4 -12 84 -22
108 -3 8 -7 20 -8 25 -6 42 -21 78 -67 155 -40 69 -228 244 -228 213 0 -4 -4
-3 -8 3 -8 13 -92 57 -92 49 0 -3 -11 2 -25 11 -14 9 -25 13 -25 10 0 -4 -8
-3 -17 3 -10 5 -36 11 -58 15 -22 3 -49 7 -60 10 -11 2 -40 7 -65 11 -95 14
-124 20 -175 32 -37 8 -36 8 -55 15 -8 3 -44 16 -80 28 -36 13 -75 29 -87 37
-13 7 -23 11 -23 8 0 -4 -14 3 -30 15 l-30 21 5 -33z"/>
<path d="M2177 4352 c12 -11 19 -22 16 -26 -4 -3 -2 -6 4 -6 6 0 16 -13 23
-30 7 -16 17 -30 22 -30 5 0 7 -4 3 -9 -3 -5 2 -17 11 -25 8 -9 13 -16 9 -16
-4 0 0 -7 9 -15 8 -8 13 -24 11 -35 -2 -11 0 -20 4 -20 5 0 6 -28 4 -62 -4
-65 -9 -103 -13 -103 -1 0 -3 -9 -5 -20 -1 -11 -6 -38 -10 -60 -17 -93 -8
-263 17 -308 6 -12 10 -23 9 -25 -6 -6 22 -62 31 -62 5 0 7 -3 5 -7 -2 -5 24
-35 57 -68 32 -33 56 -54 52 -47 -7 11 -4 11 13 0 12 -7 21 -16 21 -21 0 -4 5
-5 10 -2 6 3 10 1 10 -6 0 -7 3 -10 6 -6 4 3 19 0 35 -9 16 -8 31 -14 34 -14
3 0 6 0 8 -1 3 -1 42 -7 83 -12 18 -3 36 -7 42 -11 6 -3 9 1 8 10 -1 9 -10 20
-19 26 -9 5 -17 15 -17 22 0 7 -10 23 -22 37 -49 55 -62 73 -48 64 9 -6 6 -1
-7 10 -13 12 -23 26 -23 33 0 7 -4 12 -10 12 -5 0 -9 3 -8 8 1 4 -6 20 -17 36
-11 16 -20 36 -21 44 -2 8 -6 18 -11 21 -12 9 -35 72 -36 99 -1 12 -5 22 -10
22 -4 0 -5 9 -2 20 3 11 2 20 -2 20 -5 0 -10 35 -11 78 -2 61 1 79 11 79 8 0
14 -5 14 -11 2 -18 27 -81 36 -87 5 -3 8 -8 7 -10 -5 -9 24 -89 32 -89 5 0 7
-4 3 -9 -3 -5 -1 -12 5 -16 6 -4 8 -11 5 -16 -4 -5 -2 -9 2 -9 5 0 14 -9 21
-21 11 -17 11 -20 0 -14 -7 3 -5 0 4 -8 10 -8 15 -17 11 -20 -3 -4 -1 -7 6 -7
7 0 10 -4 7 -8 -3 -5 4 -14 14 -22 10 -8 17 -17 14 -22 -3 -4 0 -8 6 -8 6 0 8
-4 5 -10 -3 -5 2 -10 11 -10 10 0 15 -3 11 -6 -3 -3 -1 -11 4 -18 45 -54 59
-72 59 -79 0 -4 11 -12 25 -17 14 -5 25 -14 25 -20 0 -5 5 -10 10 -10 6 0 19
-9 31 -21 11 -11 22 -19 24 -17 8 8 16 99 17 193 0 105 -7 184 -24 250 -16 63
-20 79 -22 97 -1 9 -8 23 -15 32 -8 9 -11 16 -7 16 4 0 -1 15 -11 33 -9 17
-16 35 -15 40 1 4 -2 7 -7 7 -5 0 -16 12 -26 26 -11 18 -13 24 -4 19 8 -4 -3
8 -23 27 -21 20 -38 40 -38 46 0 6 -5 14 -12 18 -7 5 -9 2 -4 -7 4 -8 -1 -5
-11 6 -23 26 -108 85 -122 85 -6 0 -11 5 -11 11 0 5 -4 7 -10 4 -5 -3 -10 -1
-10 5 0 6 -4 8 -10 5 -5 -3 -10 -1 -10 6 0 7 -3 9 -6 6 -4 -3 -16 -1 -28 5
-20 11 -28 14 -60 21 -8 2 -20 8 -28 15 -8 6 -18 9 -21 6 -3 -3 -12 -2 -19 2
-11 7 -26 11 -65 16 -7 1 -13 5 -13 9 0 4 -8 6 -17 4 -10 -1 -27 2 -38 7 -18
8 -18 7 2 -10z"/>
<path d="M5240 4108 c-14 -11 -24 -25 -22 -29 1 -5 -5 -9 -13 -9 -9 0 -18 -7
-21 -15 -4 -8 -10 -13 -14 -10 -5 3 -12 0 -15 -5 -7 -11 -45 -29 -75 -37 -36
-8 -80 -5 -150 13 -14 4 -62 8 -107 10 -86 3 -160 -13 -197 -45 -15 -12 -17
-12 -11 -2 5 8 -10 2 -33 -15 -23 -16 -42 -35 -42 -43 0 -8 -3 -11 -7 -8 -8 9
-54 -53 -47 -64 3 -5 1 -9 -4 -9 -5 0 -14 -19 -21 -42 -18 -59 -21 -75 -27
-153 l-5 -70 28 34 c35 44 92 101 97 98 2 -1 17 9 33 23 29 26 35 30 54 30 5
0 7 6 3 13 -4 6 -4 9 0 5 4 -3 29 4 54 17 93 46 206 73 218 53 3 -4 -8 -13
-23 -20 -15 -7 -31 -16 -34 -21 -3 -5 -9 -8 -13 -7 -11 2 -66 -24 -66 -32 0
-5 -7 -8 -15 -8 -8 0 -15 -5 -15 -11 0 -5 -4 -8 -9 -5 -5 4 -11 2 -13 -2 -1
-4 -25 -23 -53 -42 -96 -64 -218 -210 -201 -239 9 -15 271 3 352 24 68 18 184
74 191 92 3 7 9 10 14 7 5 -3 9 2 9 11 0 9 4 14 8 11 9 -6 52 38 52 53 0 5 7
15 16 22 17 14 87 149 77 149 -3 0 0 7 7 15 6 8 9 19 5 25 -3 5 -2 10 3 10 5
0 13 19 17 43 4 23 10 49 12 57 3 8 5 27 6 43 1 15 5 27 8 27 3 0 5 10 5 23
-1 12 2 30 6 40 11 22 9 21 -22 -5z"/>
<path d="M867 3779 c-53 -12 -127 -51 -247 -131 -129 -87 -136 -93 -107 -94
48 -1 136 -14 163 -24 37 -14 75 -50 132 -125 181 -239 361 -286 546 -143 39
31 88 80 83 84 -1 1 -38 5 -82 8 -224 17 -273 33 -399 131 -31 23 -11 29 41
12 104 -34 219 -58 287 -61 77 -3 206 20 206 38 0 13 -116 122 -185 175 -143
109 -311 159 -438 130z"/>
<path d="M4310 3735 c-19 -20 -59 -52 -89 -73 -50 -35 -58 -37 -130 -37 -42 1
-107 7 -146 14 -154 27 -301 6 -383 -55 -49 -37 -99 -90 -116 -122 -41 -81
-88 -293 -67 -306 7 -5 34 17 146 118 80 73 194 142 265 161 58 15 154 19 146
6 -3 -5 -36 -26 -74 -46 -108 -59 -222 -139 -289 -202 -58 -54 -143 -172 -143
-198 0 -11 13 -11 225 -4 87 3 227 40 323 86 131 62 238 192 296 359 28 80 78
299 74 321 -2 10 -14 3 -38 -22z"/>
<path d="M1560 3478 c0 -3 18 -68 40 -144 41 -140 88 -266 102 -272 5 -2 8 -8
8 -14 0 -5 13 -28 29 -51 35 -50 91 -115 91 -105 0 3 14 -7 32 -24 92 -86 267
-132 493 -131 157 1 175 3 175 13 0 16 -63 111 -96 145 -42 44 -119 105 -133
105 -6 0 -11 4 -11 9 0 4 -71 43 -157 86 -164 81 -177 96 -74 87 123 -10 339
-120 460 -232 23 -22 44 -40 46 -40 8 0 -5 131 -18 171 -18 53 -61 141 -90
183 -48 67 -192 127 -307 127 -36 0 -119 -12 -184 -26 -144 -31 -187 -31 -245
-3 -48 23 -65 36 -134 97 -15 14 -27 22 -27 19z"/>
<path d="M3012 3378 c-161 -215 -196 -297 -195 -453 1 -115 31 -207 109 -336
77 -127 133 -209 143 -209 15 0 52 156 54 231 3 65 -3 144 -18 238 -5 32 -8
45 -20 106 -9 42 13 28 40 -25 49 -97 63 -179 64 -385 l1 -130 56 60 c70 75
99 124 119 200 36 144 -17 278 -175 440 -98 100 -110 129 -107 258 1 53 1 97
0 97 -1 0 -33 -42 -71 -92z"/>
<path d="M4456 3312 c-2 -2 -18 -4 -35 -4 -17 -1 -31 -2 -31 -4 0 -12 25 -54
32 -54 5 0 7 -4 4 -8 -14 -22 202 -201 225 -186 5 3 9 1 9 -4 0 -6 45 -29 101
-53 84 -36 98 -45 85 -55 -37 -27 -243 35 -308 94 -10 8 -18 11 -18 6 0 -5 -4
-4 -8 1 -4 6 -40 34 -80 63 l-74 53 6 -43 c17 -121 47 -198 98 -254 40 -44
140 -100 158 -89 5 3 10 2 10 -3 0 -13 136 -14 185 -2 22 6 48 12 58 15 9 2
21 7 27 10 26 16 146 13 194 -6 27 -10 52 -22 55 -26 4 -4 20 -21 37 -36 26
-23 31 -25 30 -10 -3 29 -29 123 -35 123 -3 0 -7 10 -7 23 -2 25 -61 178 -72
187 -4 3 -14 18 -21 33 -20 38 -131 148 -142 141 -5 -3 -9 -1 -9 5 0 14 -85
50 -145 62 -70 13 -321 30 -329 21z"/>
<path d="M2598 3148 c-5 -14 -4 -49 7 -208 20 -289 30 -571 23 -646 -1 -12 -8
-21 -15 -20 -14 2 -83 98 -83 115 0 5 -6 16 -12 23 -7 7 -24 35 -37 61 -13 26
-28 47 -33 47 -5 0 -7 4 -4 9 3 4 -7 24 -22 44 -29 39 -82 84 -82 70 0 -4 -4
-2 -9 6 -9 14 -86 28 -78 14 2 -4 21 -44 42 -88 21 -44 41 -82 44 -85 3 -3 7
-14 9 -25 2 -11 10 -25 18 -32 9 -6 15 -14 14 -17 -1 -4 27 -66 63 -139 35
-73 70 -150 78 -172 8 -22 18 -43 24 -47 5 -4 7 -8 3 -8 -4 0 0 -22 7 -48 8
-27 17 -64 19 -83 11 -79 18 -135 22 -154 14 -74 26 -144 29 -170 2 -16 4 -30
5 -30 9 0 14 -572 6 -685 -5 -68 -17 -189 -22 -213 -2 -10 -6 -48 -9 -85 -4
-37 -8 -79 -10 -93 -3 -14 -7 -54 -10 -90 -5 -68 -36 -198 -61 -264 -9 -22
-15 -41 -14 -43 4 -6 -13 -68 -22 -80 -8 -9 92 -12 496 -12 499 0 506 0 506
20 0 11 -5 20 -10 20 -6 0 -9 3 -8 8 2 11 -13 44 -36 77 -12 17 -20 31 -18 33
1 1 -4 17 -12 35 -14 36 -45 153 -53 202 -2 17 -9 48 -13 70 -9 37 -6 353 4
420 10 75 24 146 41 215 7 30 16 73 21 95 4 22 8 46 10 54 2 13 36 158 39 171
1 3 6 23 13 45 6 22 13 51 16 65 2 14 14 66 26 115 13 50 24 97 25 105 1 8 5
22 8 30 4 8 16 53 27 99 12 46 28 104 36 130 20 61 21 65 23 73 1 4 17 43 37
85 20 43 37 84 38 91 1 7 7 17 13 23 6 6 9 18 6 27 -4 10 -2 13 5 8 7 -4 12
-1 12 10 0 9 9 32 21 50 11 19 17 34 12 34 -4 0 -3 4 3 8 23 15 85 159 98 227
3 17 8 55 11 85 3 30 8 75 12 100 3 25 6 53 6 63 1 9 5 17 9 17 10 0 1 39 -13
56 -13 16 -64 20 -54 4 3 -5 1 -10 -4 -10 -6 0 -10 -3 -10 -7 1 -5 0 -10 -1
-13 -1 -3 -3 -14 -4 -25 -2 -11 -6 -38 -10 -60 -4 -22 -9 -49 -11 -60 -2 -11
-8 -35 -14 -54 -6 -19 -8 -38 -5 -42 3 -5 0 -9 -6 -9 -7 0 -10 -7 -6 -15 3 -8
2 -15 -3 -15 -8 0 -19 -27 -17 -41 1 -3 -7 -13 -17 -23 -9 -10 -15 -21 -12
-26 3 -5 1 -10 -4 -12 -5 -1 -11 -10 -13 -18 -2 -8 -9 -21 -16 -28 -7 -8 -10
-18 -7 -23 4 -5 1 -9 -5 -9 -9 0 -34 -49 -30 -59 1 -2 -2 -7 -7 -10 -5 -3 -26
-35 -47 -71 -45 -78 -96 -162 -115 -189 -8 -10 -13 -22 -12 -25 0 -3 -9 -17
-20 -30 -12 -13 -20 -27 -20 -31 1 -3 -8 -15 -21 -25 -13 -11 -20 -19 -15 -20
4 0 -1 -9 -10 -19 -21 -22 -22 -24 -88 -111 -27 -36 -52 -67 -55 -70 -3 -3
-30 -34 -59 -68 -69 -81 -114 -101 -171 -78 -26 11 -87 56 -83 62 1 2 -8 21
-20 41 -12 21 -23 41 -23 46 -1 4 -3 9 -4 12 -1 3 -3 8 -5 13 -1 4 -4 14 -7
22 -8 19 -28 99 -33 125 -2 11 -4 22 -5 25 -1 3 -3 10 -4 15 -1 6 -6 28 -10
50 -5 22 -10 47 -11 55 -2 8 -6 26 -9 40 -3 14 -8 36 -10 50 -2 14 -7 36 -10
50 -3 14 -8 39 -11 55 -26 147 -35 197 -40 244 -4 30 -9 63 -11 75 -3 12 -7
39 -9 62 -2 22 -7 56 -10 75 -9 47 -14 78 -20 124 -3 22 -7 47 -9 55 -11 51
-17 88 -20 110 -7 58 -37 100 -48 68z"/>
<path d="M1278 3132 c-16 -2 -28 -8 -28 -13 0 -6 -4 -8 -8 -5 -4 2 -30 -8 -57
-24 -28 -17 -45 -30 -40 -30 6 0 -3 -9 -20 -20 -16 -11 -26 -20 -21 -20 4 0
-2 -9 -15 -21 -13 -11 -17 -17 -9 -13 8 4 2 -5 -13 -19 -15 -15 -25 -32 -22
-37 3 -6 1 -10 -5 -10 -6 0 -8 -4 -5 -10 3 -5 2 -10 -4 -10 -5 0 -19 -30 -32
-67 -12 -38 -25 -72 -29 -78 -5 -5 -8 -12 -7 -15 2 -11 -57 -119 -63 -115 -4
2 -16 -4 -26 -13 -10 -10 -22 -19 -26 -21 -56 -21 -68 -26 -68 -33 0 -4 -6 -5
-14 -2 -8 3 -17 0 -21 -5 -3 -6 -12 -8 -18 -5 -7 4 -8 3 -4 -2 5 -5 12 -9 15
-10 22 -3 69 -18 80 -27 6 -5 12 -7 12 -4 0 3 25 -3 57 -14 31 -10 59 -17 61
-14 3 3 11 0 19 -7 16 -13 187 -16 248 -5 21 4 42 12 46 18 3 6 10 11 15 11
30 1 156 89 177 124 4 7 14 19 22 27 8 8 11 17 8 21 -4 3 -1 6 5 6 14 0 73 85
65 94 -4 3 -2 6 4 6 12 0 58 70 55 83 -1 4 2 7 7 7 9 0 35 54 31 66 -1 4 4 10
11 15 20 12 -36 22 -89 16 -56 -7 -156 -42 -177 -63 -8 -9 -15 -12 -15 -7 0 4
-7 -1 -15 -11 -8 -11 -15 -16 -15 -12 0 4 -23 -8 -50 -28 -28 -20 -52 -36 -55
-36 -3 0 -14 -8 -25 -17 -10 -10 -33 -26 -50 -37 l-32 -18 7 23 c4 12 16 31
26 42 10 11 16 25 12 30 -3 6 -2 8 3 5 8 -5 41 23 47 40 1 4 5 6 10 5 4 -2 7
1 7 6 0 5 24 24 53 42 28 18 54 36 57 39 3 3 37 20 75 37 91 40 108 47 118 45
4 -1 7 4 7 12 0 16 -87 59 -141 71 -39 9 -102 12 -141 7z"/>
<path d="M4435 2658 c-81 -9 -235 -55 -235 -69 0 -6 -4 -8 -8 -5 -16 10 -132
-83 -132 -105 0 -7 -3 -10 -6 -6 -3 3 -24 -13 -45 -35 -21 -23 -36 -44 -33
-47 4 -3 9 0 11 7 3 6 9 10 14 6 5 -3 15 -2 22 3 6 4 23 9 37 11 14 2 27 7 28
13 2 5 8 7 12 4 5 -3 38 2 72 11 62 16 223 26 243 15 6 -3 20 -7 33 -9 19 -2
183 -57 277 -92 11 -4 23 -8 27 -9 4 -1 22 -7 40 -12 18 -6 44 -12 58 -15 14
-2 36 -6 50 -8 14 -3 29 -5 33 -5 5 -1 6 -5 2 -10 -3 -6 -22 -8 -43 -6 -20 3
-64 7 -97 9 -33 3 -73 8 -90 12 -16 3 -41 7 -55 8 -14 0 -27 4 -30 7 -3 3 -41
14 -85 24 -91 21 -236 23 -362 6 -127 -18 -313 -78 -313 -100 0 -6 -4 -10 -8
-9 -9 3 -66 -42 -70 -54 -1 -5 -5 -8 -9 -7 -8 1 -26 -31 -21 -36 2 -2 24 9 48
25 25 17 51 30 58 30 6 0 12 5 12 11 0 5 4 8 9 4 5 -3 12 -2 15 3 10 16 166
-1 166 -18 0 -5 10 -12 22 -16 12 -3 26 -10 32 -15 58 -49 71 -57 79 -52 6 3
7 2 4 -4 -5 -8 48 -47 63 -47 3 0 13 -7 23 -16 27 -26 147 -83 227 -108 141
-45 284 -26 416 55 81 50 165 123 157 136 -3 5 -2 7 4 4 8 -5 94 83 104 107 2
4 21 25 41 47 49 51 102 129 93 137 -3 4 -25 8 -48 9 -81 5 -132 14 -202 34
-38 12 -74 22 -80 23 -5 0 -12 3 -15 6 -3 3 -39 19 -80 34 -41 16 -94 37 -118
48 -23 10 -47 16 -52 13 -6 -3 -10 -2 -10 3 0 6 -12 13 -27 18 -16 4 -30 8
-33 9 -72 23 -149 31 -225 23z"/>
<path d="M1710 2538 c-101 -12 -206 -46 -234 -74 -8 -8 -17 -14 -21 -14 -6 0
-132 -73 -150 -87 -6 -4 -48 -26 -95 -48 -47 -22 -87 -43 -88 -48 -2 -4 -8 -5
-13 -2 -5 4 -23 0 -41 -8 -46 -21 -70 -29 -93 -33 -11 -2 -29 -6 -40 -8 -11
-2 -26 -5 -32 -5 -7 -1 -13 -6 -13 -12 0 -20 207 -229 228 -229 6 0 12 -4 12
-10 0 -10 73 -58 157 -103 84 -45 172 -70 253 -72 74 -2 172 18 178 36 2 5 8
7 13 3 11 -6 129 55 129 67 0 5 3 8 8 7 12 -4 112 71 112 84 0 6 3 9 6 5 10
-9 166 136 158 147 -2 3 -1 4 2 1 4 -2 19 4 33 14 39 28 95 40 164 35 61 -5
62 -4 42 14 -23 22 -110 57 -174 71 -44 10 -361 7 -416 -4 -47 -9 -99 -27
-114 -39 -8 -6 -17 -11 -20 -10 -15 2 -41 -9 -41 -18 0 -5 -4 -7 -9 -3 -5 3
-17 -2 -25 -11 -9 -8 -16 -13 -16 -10 0 3 -21 -4 -47 -15 -92 -39 -263 -73
-263 -52 0 4 37 21 82 36 94 33 264 112 292 136 10 9 21 15 25 14 10 -4 61 21
61 30 0 5 4 5 10 2 5 -3 21 2 36 12 15 9 34 18 43 19 9 1 34 5 56 10 68 13
149 8 323 -21 23 -4 42 -5 42 -1 0 15 -59 70 -112 106 -109 73 -265 107 -408
88z"/>
<path d="M3070 2282 c-37 -4 -80 -23 -80 -34 0 -5 -4 -7 -9 -4 -13 8 -65 -54
-83 -99 -17 -45 -17 -157 1 -163 6 -2 9 -8 5 -13 -3 -5 2 -12 10 -15 9 -3 14
-9 11 -14 -8 -13 37 -52 83 -72 60 -27 113 -25 176 7 48 24 90 68 86 89 -1 5
4 12 10 16 6 4 14 34 17 66 4 48 1 68 -16 105 -41 87 -130 142 -211 131z"/>
</g>
</svg>
